<?xml version="1.0" encoding="UTF-8"?>
<svg width="17px" height="15px" viewBox="0 0 17 15" version="1.1" xmlns="http://www.w3.org/2000/svg" xmlns:xlink="http://www.w3.org/1999/xlink">
    <title>历史数据的副本</title>
    <g id="html-1" stroke="none" stroke-width="1" fill="none" fill-rule="evenodd">
        <g id="Apple-TV" transform="translate(-557.000000, -92.000000)" fill="#8F3132" fill-rule="nonzero">
            <g id="history-copt--red" transform="translate(557.000000, 92.000000)">
                <path d="M11.6646197,4.16985463 C8.72096281,4.16985463 6.3292416,6.59908187 6.3292416,9.58492731 C6.3292416,12.5707728 8.72285949,15 11.6646197,15 C14.6082765,15 16.9999989,12.5707728 16.9999989,9.58492731 C17.0018944,6.60099464 14.6063799,4.16985463 11.6646197,4.16985463 Z M11.6646197,13.9843152 C9.27479516,13.9843152 7.33069188,12.010329 7.33069188,9.58492731 C7.33069188,7.15952563 9.27479516,5.1855394 11.6646197,5.1855394 C14.0544442,5.1855394 15.9985489,7.15952563 15.9985489,9.58492731 C16.0004442,12.010329 14.0563409,13.9843152 11.6646197,13.9843152 Z M0.663840144,12.0504973 C0.487448334,12.0504973 0.320539955,12.1212701 0.195358671,12.2475134 C0.0720740728,12.3737567 0.00189668613,12.5439939 0.00189668613,12.7199694 C0.00189668613,13.0910482 0.297779722,13.3913542 0.661943458,13.3913542 L5.76213245,13.3913542 C5.49849308,12.9686305 5.27847749,12.5210406 5.10967242,12.0524101 L0.663840144,12.0504973 Z M0.663840144,1.34085692 L14.7562181,1.34085692 C15.1222785,1.34085692 15.4162648,1.04055088 15.4162648,0.671384851 C15.4162648,0.493496557 15.3479841,0.323259373 15.2246995,0.197016067 C15.1014149,0.0707727621 14.9326099,0 14.7562181,0 L0.663840144,0 C0.307263152,0.0153022188 0.0246569196,0.309869931 0.0246569196,0.669472073 C0.0265536058,1.03098699 0.307263152,1.32746748 0.663840144,1.34085692 L0.663840144,1.34085692 Z M0.663840144,9.37260903 L4.67912467,9.37260903 C4.69240148,8.92310635 4.74550869,8.47360367 4.84034299,8.03366488 L0.663840144,8.03366488 C0.297779722,8.03366488 -3.45005197e-15,8.33397093 -3.45005197e-15,8.70313695 C-3.45005197e-15,9.07421576 0.297779722,9.37260903 0.663840144,9.37260903 Z M7.33258856,4.01874522 L0.663840144,4.01874522 C0.487448334,4.01874522 0.318643269,4.08951798 0.195358671,4.21576129 C0.0720740728,4.34200459 0.00189668613,4.51224178 0.00375589434,4.69013007 C0.00375589434,5.06120888 0.299676408,5.36151492 0.663840144,5.36151492 L6.05232543,5.36151492 C6.42217922,4.8565417 6.85083029,4.40703902 7.33258856,4.01874522 L7.33258856,4.01874522 Z" id="形状"></path>
                <path d="M11.8220446,9.50841622 L11.8220446,8.10252487 C11.8220446,7.76970161 11.5546119,7.5 11.2245885,7.5 C10.8945651,7.5 10.6271324,7.76970161 10.6271324,8.10252487 L10.6271324,10.1109411 C10.6271324,10.4456771 10.8945651,10.713466 11.2245885,10.713466 L13.2161089,10.713466 C13.5461323,10.713466 13.8135651,10.4437643 13.8135651,10.1109411 C13.8135651,9.77811783 13.5461323,9.50841622 13.2161089,9.50841622 L11.8220446,9.50841622 Z" id="路径"></path>
            </g>
        </g>
    </g>
</svg>