<?xml version="1.0" encoding="UTF-8"?>
<svg width="17px" height="16px" viewBox="0 0 17 16" version="1.1" xmlns="http://www.w3.org/2000/svg" xmlns:xlink="http://www.w3.org/1999/xlink">
    <title>历史数据</title>
    <g id="页面-1" stroke="none" stroke-width="1" fill="none" fill-rule="evenodd">
        <g id="Apple-TV" transform="translate(-197.000000, -91.000000)" fill="#FFFFFF" fill-rule="nonzero">
            <g id="历史数据" transform="translate(197.000000, 91.000000)">
                <path d="M15.1348571,12.4669073 C15.1348571,12.2166065 14.96,12.0433213 14.7074286,12.0433213 L13.4348571,12.0433213 L13.4348571,10.1853189 C13.4348571,9.93501805 13.26,9.76173285 13.0074286,9.76173285 C12.7548571,9.76173285 12.58,9.93501805 12.58,10.1853189 L12.58,12.8808664 L14.7948571,12.8808664 C14.96,12.8904934 15.1348571,12.7172082 15.1348571,12.4669073 L15.1348571,12.4669073 Z M1.95257143,16 L8.58742857,16 C8.84,16 9.03428571,15.7015644 9.03428571,15.4512635 C9.03428571,15.2009627 8.84971429,14.8929001 8.58742857,14.8929001 L2.23428571,14.8929001 C1.64171429,14.8929001 1.12685714,14.6522262 1.12685714,14.0649819 L1.12685714,1.93501805 C1.12685714,1.34777377 1.62228571,1.10709988 2.21485714,1.10709988 L11.4531429,1.10709988 C12.0457143,1.10709988 12.2982857,1.35740072 12.2982857,1.94464501 L12.2982857,6.49819495 C12.2982857,6.74849579 12.6091429,6.90252708 12.8617143,6.90252708 C13.1142857,6.90252708 13.4251429,6.74849579 13.4251429,6.49819495 L13.4251429,1.93501805 C13.4251429,0.837545126 12.5702857,0 11.4725714,0 L1.95257143,0 C0.845142857,0 -3.45120757e-15,0.847172082 -3.45120757e-15,1.93501805 L-3.45120757e-15,14.0649819 C-3.45120757e-15,15.1624549 0.845142857,16 1.95257143,16 Z" id="形状"></path>
                <path d="M13.0074286,16 C15.2222857,16 17,14.2286402 17,12.0433213 C17,9.85800241 15.2125714,8.0866426 13.0074286,8.0866426 C10.8022857,8.0866426 9.01485714,9.85800241 9.01485714,12.0433213 C9.01485714,14.2286402 10.7925714,16 13.0074286,16 Z M13.0074286,8.92418773 C14.7074286,8.92418773 16.1548571,10.2719615 16.1548571,12.0433213 C16.1548571,13.7280385 14.7948571,15.1624549 13.0074286,15.1624549 C11.3074286,15.1624549 9.86,13.8146811 9.86,12.0433213 C9.86,10.3586041 11.3074286,8.92418773 13.0074286,8.92418773 Z M2.72,4.0433213 L10.7051429,4.0433213 C10.9577143,4.0433213 11.1325714,3.8700361 11.1325714,3.61973526 C11.1325714,3.36943442 10.9577143,3.19614922 10.7051429,3.19614922 L2.72,3.19614922 C2.46742857,3.19614922 2.29257143,3.36943442 2.29257143,3.61973526 C2.29257143,3.8700361 2.45771429,4.0433213 2.72,4.0433213 Z M5.86742857,11.9566787 L2.72,11.9566787 C2.46742857,11.9566787 2.29257143,12.1299639 2.29257143,12.3802647 C2.29257143,12.6305656 2.46742857,12.8038508 2.72,12.8038508 L5.86742857,12.8038508 C6.12,12.8038508 6.29485714,12.6305656 6.29485714,12.3802647 C6.29485714,12.1299639 6.12,11.9566787 5.86742857,11.9566787 Z M7.30514286,9.01083032 L2.72,9.01083032 C2.46742857,9.01083032 2.29257143,9.18411552 2.29257143,9.43441637 C2.29257143,9.68471721 2.46742857,9.85800241 2.72,9.85800241 L7.30514286,9.85800241 C7.55771429,9.85800241 7.73257143,9.68471721 7.73257143,9.43441637 C7.73257143,9.18411552 7.56742857,9.01083032 7.30514286,9.01083032 Z M10.7051429,6.14199759 L2.72,6.14199759 C2.46742857,6.14199759 2.29257143,6.31528279 2.29257143,6.56558363 C2.29257143,6.81588448 2.46742857,6.98916968 2.72,6.98916968 L10.7051429,6.98916968 C10.9577143,6.98916968 11.1325714,6.81588448 11.1325714,6.56558363 C11.1325714,6.31528279 10.9674286,6.14199759 10.7051429,6.14199759 Z" id="形状"></path>
            </g>
        </g>
    </g>
</svg>