<?xml version="1.0" encoding="UTF-8"?>
<svg width="17px" height="15px" viewBox="0 0 17 15" version="1.1" xmlns="http://www.w3.org/2000/svg" xmlns:xlink="http://www.w3.org/1999/xlink">
    <title>快照</title>
    <g id="页面-1" stroke="none" stroke-width="1" fill="none" fill-rule="evenodd">
        <g id="Apple-TV" transform="translate(-378.000000, -92.000000)" fill="#3894FC" fill-rule="nonzero">
            <g id="快照" transform="translate(378.000000, 92.000000)">
                <path d="M14.875,13.9285714 C15.4618025,13.9285714 15.9375,13.4488765 15.9375,12.8571429 L15.9375,4.28571429 C15.9375,3.69398063 15.4618025,3.21428571 14.875,3.21428571 L11.6875,3.21428571 L11.6875,1.07142857 L5.3125,1.07142857 L5.3125,3.21428571 L2.125,3.21428571 C1.53819745,3.21428571 1.0625,3.69398063 1.0625,4.28571429 L1.0625,12.8571429 C1.0625,13.4488765 1.53819745,13.9285714 2.125,13.9285714 L14.875,13.9285714 M14.875,15 L2.125,15 C0.951394907,15 0,14.0406102 0,12.8571429 L0,4.28571429 C0,3.10224696 0.951394907,2.14285714 2.125,2.14285714 L4.25,2.14285714 L4.25,1.07142857 C4.25,0.479694911 4.72569745,0 5.3125,0 L11.6875,0 C12.2743025,0 12.75,0.479694911 12.75,1.07142857 L12.75,2.14285714 L14.875,2.14285714 C16.0486051,2.14285714 17,3.10224696 17,4.28571429 L17,12.8571429 C17,14.0406102 16.0486051,15 14.875,15 Z" id="形状"></path>
                <path d="M8.5,12.8571429 C6.15278981,12.8571429 4.25,10.9383632 4.25,8.57142857 C4.25,6.20449393 6.15278981,4.28571429 8.5,4.28571429 C10.8472102,4.28571429 12.75,6.20449393 12.75,8.57142857 C12.75,10.9383632 10.8472102,12.8571429 8.5,12.8571429 L8.5,12.8571429 Z M8.5,5.35714286 C6.73959236,5.35714286 5.3125,6.79622759 5.3125,8.57142857 C5.3125,10.3466296 6.73959236,11.7857143 8.5,11.7857143 C10.2604076,11.7857143 11.6875,10.3466296 11.6875,8.57142857 C11.6875,6.79622759 10.2604076,5.35714286 8.5,5.35714286 L8.5,5.35714286 Z" id="形状"></path>
                <path d="M3.1875,6.42857143 C2.60069745,6.42857143 2.125,5.94887652 2.125,5.35714286 C2.125,4.7654092 2.60069745,4.28571429 3.1875,4.28571429 C3.77430255,4.28571429 4.25,4.7654092 4.25,5.35714286 C4.25,5.94887652 3.77430255,6.42857143 3.1875,6.42857143 Z M3.22919922,4.82142857 L3.22919922,5.35714286 L3.22919922,4.82142857 Z" id="形状"></path>
            </g>
        </g>
    </g>
</svg>