<?xml version="1.0" encoding="UTF-8"?>
<svg width="16px" height="16px" viewBox="0 0 16 16" version="1.1" xmlns="http://www.w3.org/2000/svg" xmlns:xlink="http://www.w3.org/1999/xlink">
    <title>日期</title>
    <g id="页面-1" stroke="none" stroke-width="1" fill="none" fill-rule="evenodd">
        <g id="Apple-TV" transform="translate(-232.000000, -250.000000)" fill="#999999" fill-rule="nonzero">
            <g id="编组-18" transform="translate(60.000000, 245.000000)">
                <g id="日期" transform="translate(172.000000, 5.000000)">
                    <path d="M14.8828003,1 L12.6704922,1 L12.6704922,0.6 C12.6704922,0.3 12.3688138,0 12.0671354,0 C11.765457,0 11.4637786,0.3 11.4637786,0.6 L11.4637786,1 L4.72629471,1 L4.72629471,0.6 C4.72629471,0.3 4.42461632,0 4.12293793,0 C3.82125955,0 3.51958116,0.3 3.51958116,0.6 L3.51958116,1 L1.20671354,1 C0.603356771,1 0,1.5 0,2.2 L0,14.7 C0,15.4 0.603356771,16 1.20671354,16 L14.7822409,16 C15.4861571,16 15.9889544,15.4 15.9889544,14.8 L15.9889544,2.2 C16.0895139,1.5 15.4861571,1 14.8828003,1 Z M14.8828003,14.8 L1.20671354,14.8 L1.20671354,4.8 L14.7822409,4.8 L14.7822409,14.8 L14.8828003,14.8 Z M14.8828003,3.5 L1.20671354,3.5 L1.20671354,2.2 L3.4190217,2.2 L3.4190217,2.3 C3.4190217,2.6 3.72070009,2.9 4.02237847,2.9 C4.32405686,2.9 4.62573524,2.6 4.62573524,2.3 L4.62573524,2.2 L11.2626597,2.2 L11.2626597,2.3 C11.2626597,2.6 11.5643381,2.9 11.8660165,2.9 C12.1676949,2.9 12.4693733,2.6 12.4693733,2.3 L12.4693733,2.2 L14.6816814,2.2 L14.6816814,3.5 L14.8828003,3.5 Z" id="形状"></path>
                    <path d="M4.12293793,9 L5.32965148,9 C5.73188932,9 6.03356771,8.7 6.03356771,8.4 C6.03356771,8.1 5.73188932,7.7 5.43021094,7.7 L4.12293793,7.7 C3.82125955,7.7 3.51958116,8 3.51958116,8.4 C3.51958116,8.8 3.82125955,9 4.12293793,9 Z M7.44140017,9 L8.64811372,9 C9.05035156,9 9.25147049,8.7 9.25147049,8.4 C9.25147049,8.1 9.05035156,7.7 8.64811372,7.7 L7.44140017,7.7 C7.03916233,7.7 6.8380434,8 6.8380434,8.4 C6.8380434,8.8 7.03916233,9 7.44140017,9 Z M10.659303,9 L11.8660165,9 C12.1676949,9 12.4693733,8.7 12.4693733,8.4 C12.4693733,8.1 12.1676949,7.8 11.8660165,7.8 L10.659303,7.8 C10.3576246,7.7 10.0559462,8 10.0559462,8.4 C10.0559462,8.8 10.3576246,9 10.659303,9 Z M4.12293793,12.3 L5.32965148,12.3 C5.73188932,12.3 6.03356771,12 6.03356771,11.6 C6.03356771,11.2 5.73188932,11 5.43021094,11 L4.12293793,11 C3.82125955,11 3.51958116,11.3 3.51958116,11.6 C3.51958116,11.9 3.82125955,12.3 4.12293793,12.3 Z M7.44140017,12.3 L8.64811372,12.3 C8.9497921,12.3 9.25147049,12 9.25147049,11.7 C9.25147049,11.4 9.05035156,11 8.64811372,11 L7.44140017,11 C7.13972179,11 6.8380434,11.3 6.8380434,11.6 C6.8380434,11.9 7.03916233,12.3 7.44140017,12.3 Z" id="形状"></path>
                </g>
            </g>
        </g>
    </g>
</svg>