<?xml version="1.0" encoding="UTF-8"?>
<svg width="16px" height="10px" viewBox="0 0 16 10" version="1.1" xmlns="http://www.w3.org/2000/svg" xmlns:xlink="http://www.w3.org/1999/xlink">
    <title>路径</title>
    <g id="页面-1" stroke="none" stroke-width="1" fill="none" fill-rule="evenodd">
        <g id="Apple-TV" transform="translate(-1834.000000, -253.000000)" fill="#333333" fill-rule="nonzero">
            <g id="左-(2)的副本" transform="translate(1841.547106, 258.106062) rotate(-285.000000) translate(-1841.547106, -258.106062) translate(1835.259297, 249.696933)">
                <path d="M10.5975638,14.8379226 C10.8512035,15.0826928 10.8512035,15.480223 10.5975638,15.7250231 C10.3451943,15.9704982 9.93456538,15.9704982 9.68211849,15.7250231 L1.97231067,8.88471965 C1.83761346,8.75355958 1.77989272,8.5800845 1.78867632,8.4091744 C1.77989274,8.23815931 1.83759798,8.06433923 1.97231067,7.93353917 L9.68213398,1.09323574 C9.93458088,0.847760621 10.3452098,0.847760621 10.5975793,1.09323574 C10.851219,1.33826085 10.851219,1.73553607 10.5975793,1.98033618 L3.35371996,8.40915941 L10.5975638,14.8379226 L10.5975638,14.8379226 Z" id="路径" transform="translate(6.287809, 8.409129) rotate(-345.000000) translate(-6.287809, -8.409129) "></path>
            </g>
        </g>
    </g>
</svg>